<?xml version="1.0" encoding="utf-8"?>
<!-- Generator: Adobe Illustrator 21.1.0, SVG Export Plug-In . SVG Version: 6.00 Build 0)  -->
<svg version="1.1" xmlns="http://www.w3.org/2000/svg" xmlns:xlink="http://www.w3.org/1999/xlink" x="0px" y="0px"
	 viewBox="0 0 496.1 160.3" style="enable-background:new 0 0 496.1 160.3;" xml:space="preserve">
<style type="text/css">
	.st0{fill:url(#SVGID_1_);}
	.st1{fill:url(#SVGID_2_);}
	.st2{fill:url(#SVGID_3_);}
	.st3{fill:#E84E0F;}
	.st4{fill:#EC6726;}
	.st5{fill:#F07F3C;}
	.st6{fill:#00394F;}
	.st7{fill:#94969A;}
</style>
<g id="GRID">
</g>
<g id="Calque_2">
	<g>
		<linearGradient id="SVGID_1_" gradientUnits="userSpaceOnUse" x1="143.1991" y1="111.8485" x2="143.1991" y2="29.8992">
			<stop  offset="0" style="stop-color:#9F9E9F"/>
			<stop  offset="0.4929" style="stop-color:#B2B2B3"/>
			<stop  offset="1" style="stop-color:#C6C6C7"/>
		</linearGradient>
		<rect x="137.6" y="29.9" class="st0" width="11.1" height="81.9"/>
	</g>
	<g>
		<linearGradient id="SVGID_2_" gradientUnits="userSpaceOnUse" x1="120.9472" y1="111.8485" x2="120.9472" y2="42.7667">
			<stop  offset="0" style="stop-color:#9F9E9F"/>
			<stop  offset="0.4929" style="stop-color:#B2B2B3"/>
			<stop  offset="1" style="stop-color:#C6C6C7"/>
		</linearGradient>
		<rect x="115.4" y="42.8" class="st1" width="11.1" height="69.1"/>
	</g>
	<g>
		<linearGradient id="SVGID_3_" gradientUnits="userSpaceOnUse" x1="98.6953" y1="111.8485" x2="98.6953" y2="55.8024">
			<stop  offset="0" style="stop-color:#9F9E9F"/>
			<stop  offset="0.4929" style="stop-color:#B2B2B3"/>
			<stop  offset="1" style="stop-color:#C6C6C7"/>
		</linearGradient>
		<rect x="93.1" y="55.8" class="st2" width="11.1" height="56"/>
	</g>
	<path class="st3" d="M11.2,30.9c0-0.3,0-0.7,0-1H0c0,45.3,36.7,82,82,82v-11.1C43.2,100.7,11.7,69.5,11.2,30.9z"/>
	<path class="st4" d="M82,89.6V78.5c-26.8,0-48.6-21.7-48.6-48.6H22.3C22.3,62.8,49,89.6,82,89.6z"/>
	<path class="st5" d="M82,67.3V56.2c-14.5,0-26.3-11.8-26.3-26.3H44.5C44.5,50.5,61.3,67.3,82,67.3z"/>
	<g>
		<path class="st6" d="M431.5,103.9c0,4.3-3.5,7.7-7.7,7.7c-4.3,0-7.7-3.5-7.7-7.7c0-4.3,3.5-7.7,7.7-7.7
			C428.1,96.2,431.5,99.6,431.5,103.9z M429.8,103.9c0-3.3-2.7-6-6-6c-3.3,0-6,2.7-6,6c0,3.3,2.7,6,6,6
			C427.1,109.9,429.8,107.2,429.8,103.9z M427.6,102.3v0.7c0,1.4-0.4,2.1-1.7,2.4l1.4,2.5h-2l-1.3-2.4h-1.7v2.4h-1.8v-8h4.4
			C426.9,99.9,427.6,100.6,427.6,102.3z M425.8,102.3c0-0.6-0.1-0.8-0.9-0.8h-2.7v2.3h2.7c0.8,0,0.9-0.3,0.9-0.8V102.3z"/>
	</g>
	<path class="st6" d="M305.1,95.1h14.6v16.3h-14.6c-14.6,0-20.4-5.8-20.4-20.4V0.3l17.5-0.1l0,90.8
		C302.2,93.6,302.5,95.1,305.1,95.1z"/>
	<path class="st6" d="M331.3,111.4V0l17.5,0.2v29.6h34.9c16,0,23.3,7.3,23.3,23.3v58.2h-17.5V53.1c0-4.4-1.5-7-5.8-7h-34.9v65.2
		H331.3z"/>
	<path class="st6" d="M246.1,99.6c15.6-0.1,22.7-7.4,22.7-23.3V53c0-16-7.3-23.3-23.3-23.3h-64.1V46H199v0h46.6c4.4,0,5.8,2.6,5.8,7
		v23.3c0,4.4-1.5,7-5.8,7H199V62.5h-17.5v59.6H199V99.6h26.9l24.2,41.7h19.7L246.1,99.6z"/>
	<g>
		<path class="st6" d="M189.1,0.3h0.3l8.7,19.2H194l-0.9-2.2h-7.7l-0.9,2.2h-3.8L189.1,0.3z M191.7,14l-1.4-3.3
			c-0.6-1.3-1.1-3.4-1.1-3.4s-0.6,2.1-1.1,3.4l-1.4,3.3H191.7z"/>
		<path class="st6" d="M200.7,0.5h3.9V16h8.6v3.4h-12.5V0.5z"/>
		<path class="st6" d="M216.3,0.5h5.3c5.3,0,8.5,2.8,8.5,7.3s-3.2,7.3-8.5,7.3h-1.3v4.3h-3.9V0.5z M221.5,11.7
			c3.2,0,4.6-1.3,4.6-3.9c0-2.6-1.5-3.9-4.6-3.9h-1.2v7.8H221.5z"/>
		<path class="st6" d="M233.1,0.5h3.9v9.7h8.1V0.5h3.9v19h-3.9v-5.8H237v5.8h-3.9V0.5z"/>
		<path class="st6" d="M260,0.3h0.3l8.7,19.2h-4.1l-0.9-2.2h-7.7l-0.9,2.2h-3.8L260,0.3z M262.6,14l-1.4-3.3
			c-0.6-1.3-1.1-3.4-1.1-3.4s-0.6,2.1-1.1,3.4l-1.4,3.3H262.6z"/>
	</g>
	<g>
		<path class="st7" d="M293.4,141.4h-2.8l-1.9-3c-0.2,0-0.5,0.1-0.7,0.1h-0.8v2.9h-2.4v-11.8h3.3c3.3,0,5.3,1.6,5.3,4.5
			c0,1.8-0.8,3-2.3,3.7L293.4,141.4z M287.9,136.3c2,0,2.8-0.6,2.8-2.3c0-1.7-0.9-2.3-2.8-2.3h-0.8v4.6H287.9z"/>
		<path class="st7" d="M295,135.5c0-3.5,2.7-6.1,6.1-6.1c3.4,0,6.1,2.6,6.1,6.1s-2.7,6.1-6.1,6.1C297.7,141.5,295,138.9,295,135.5z
			 M304.7,135.5c0-2.2-1.5-3.9-3.6-3.9c-2.2,0-3.6,1.7-3.6,3.9c0,2.2,1.5,3.9,3.6,3.9C303.2,139.3,304.7,137.7,304.7,135.5z"/>
		<path class="st7" d="M309.2,137.1v-7.5h2.4v7.4c0,1.7,0.7,2.4,2.4,2.4c1.6,0,2.3-0.7,2.3-2.4v-7.4h2.4v7.5c0,3-2.1,4.4-4.8,4.4
			C311.3,141.5,309.2,140.1,309.2,137.1z"/>
		<path class="st7" d="M323.8,131.7h-3.4v-2.1h9.2v2.1h-3.4v9.7h-2.4V131.7z"/>
		<path class="st7" d="M331.4,129.6h7.8v2.1h-5.4v3.7h4.7v2.1h-4.7v1.7h5.6v2.1h-8V129.6z"/>
		<path class="st7" d="M345.5,129.6h3.6c3.6,0,6.2,2.4,6.2,5.9s-2.6,5.9-6.2,5.9h-3.6V129.6z M349,139.2c2.6,0,3.8-1.6,3.8-3.8
			c0-2.2-1.2-3.8-3.8-3.8H348v7.5H349z"/>
		<path class="st7" d="M357.4,129.6h7.8v2.1h-5.4v3.7h4.7v2.1h-4.7v1.7h5.6v2.1h-8V129.6z"/>
		<path class="st7" d="M366.8,139l2-1.1c0.5,0.8,1.2,1.5,2.4,1.5c1,0,1.6-0.5,1.6-1.2c0-0.8-0.7-1.1-1.8-1.6l-0.6-0.3
			c-1.8-0.7-2.9-1.7-2.9-3.7c0-1.8,1.4-3.2,3.6-3.2c1.5,0,2.7,0.5,3.5,1.9l-1.9,1.2c-0.4-0.7-0.9-1-1.6-1c-0.7,0-1.2,0.5-1.2,1
			c0,0.7,0.5,1,1.5,1.5l0.6,0.3c2.1,0.9,3.2,1.8,3.2,3.8c0,2.2-1.7,3.4-4,3.4C369,141.5,367.5,140.4,366.8,139z"/>
		<path class="st7" d="M381,129.6h2.4v9.7h5.3v2.1H381V129.6z"/>
		<path class="st7" d="M395,129.5h0.2l5.4,11.9h-2.5l-0.6-1.3h-4.8l-0.6,1.3h-2.3L395,129.5z M396.6,138l-0.8-2
			c-0.3-0.8-0.7-2.1-0.7-2.1s-0.3,1.3-0.7,2.1l-0.9,2H396.6z"/>
		<path class="st7" d="M401.1,139l2-1.1c0.5,0.8,1.2,1.5,2.4,1.5c1,0,1.6-0.5,1.6-1.2c0-0.8-0.7-1.1-1.8-1.6l-0.6-0.3
			c-1.8-0.7-2.9-1.7-2.9-3.7c0-1.8,1.4-3.2,3.6-3.2c1.5,0,2.7,0.5,3.5,1.9l-1.9,1.2c-0.4-0.7-0.9-1-1.6-1c-0.7,0-1.2,0.5-1.2,1
			c0,0.7,0.5,1,1.5,1.5l0.6,0.3c2.1,0.9,3.2,1.8,3.2,3.8c0,2.2-1.7,3.4-4,3.4C403.3,141.5,401.8,140.4,401.1,139z"/>
		<path class="st7" d="M411.4,129.6h7.8v2.1h-5.4v3.7h4.7v2.1h-4.7v1.7h5.6v2.1h-8V129.6z"/>
		<path class="st7" d="M430.4,141.4h-2.8l-1.9-3c-0.2,0-0.5,0.1-0.7,0.1h-0.8v2.9h-2.4v-11.8h3.3c3.3,0,5.3,1.6,5.3,4.5
			c0,1.8-0.8,3-2.3,3.7L430.4,141.4z M424.9,136.3c2,0,2.8-0.6,2.8-2.3c0-1.7-0.9-2.3-2.8-2.3h-0.8v4.6H424.9z"/>
		<path class="st7" d="M431.4,139l2-1.1c0.5,0.8,1.2,1.5,2.4,1.5c1,0,1.6-0.5,1.6-1.2c0-0.8-0.7-1.1-1.8-1.6l-0.6-0.3
			c-1.8-0.7-2.9-1.7-2.9-3.7c0-1.8,1.4-3.2,3.6-3.2c1.5,0,2.7,0.5,3.5,1.9l-1.9,1.2c-0.4-0.7-0.9-1-1.6-1c-0.7,0-1.2,0.5-1.2,1
			c0,0.7,0.5,1,1.5,1.5l0.6,0.3c2.1,0.9,3.2,1.8,3.2,3.8c0,2.2-1.7,3.4-4,3.4C433.5,141.5,432.1,140.4,431.4,139z"/>
		<path class="st7" d="M452.7,137.3c0.3-0.6,0.4-1.3,0.4-2.2h2.2c0,1.6-0.4,2.9-1.2,4l1.8,2.3h-2.9l-0.6-0.7c-0.9,0.6-1.9,0.9-3,0.9
			c-2.9,0-4.6-1.5-4.6-3.5c0-1.7,0.9-2.6,2.7-3.5c-0.6-0.8-0.8-1.5-0.8-2.3c0-1.5,1.2-2.8,3.1-2.8c1.9,0,3.1,1.1,3.1,2.7
			c0,1.1-0.7,2-2.2,2.8L452.7,137.3z M448.7,135.9c-1,0.6-1.3,1.2-1.3,1.9c0,1,0.6,1.6,2,1.6c0.6,0,1.2-0.1,1.7-0.4L448.7,135.9z
			 M450.9,132.1c0-0.5-0.4-0.8-0.9-0.8c-0.5,0-0.9,0.4-0.9,0.9c0,0.6,0.3,0.9,0.6,1.4l0,0.1C450.6,133.1,450.9,132.7,450.9,132.1z"
			/>
		<path class="st7" d="M296.2,146.9h3.6c3.6,0,6.2,2.4,6.2,5.9s-2.6,5.9-6.2,5.9h-3.6V146.9z M299.7,156.6c2.6,0,3.8-1.6,3.8-3.8
			c0-2.2-1.2-3.8-3.8-3.8h-1.1v7.5H299.7z"/>
		<path class="st7" d="M308.1,146.9h7.8v2.1h-5.4v3.7h4.7v2.1h-4.7v1.7h5.6v2.1h-8V146.9z"/>
		<path class="st7" d="M317.5,156.4l2-1.1c0.5,0.8,1.2,1.5,2.4,1.5c1,0,1.6-0.5,1.6-1.2c0-0.8-0.7-1.1-1.8-1.6l-0.6-0.3
			c-1.8-0.7-2.9-1.7-2.9-3.7c0-1.8,1.4-3.2,3.6-3.2c1.5,0,2.7,0.5,3.5,1.9l-1.9,1.2c-0.4-0.7-0.9-1-1.6-1c-0.7,0-1.2,0.5-1.2,1
			c0,0.7,0.5,1,1.5,1.5l0.6,0.3c2.1,0.9,3.2,1.8,3.2,3.8c0,2.2-1.7,3.4-4,3.4C319.6,158.9,318.2,157.8,317.5,156.4z"/>
		<path class="st7" d="M331.6,146.9h2.4v6h5v-6h2.4v11.8h-2.4v-3.6h-5v3.6h-2.4V146.9z"/>
		<path class="st7" d="M347.6,154.9l-4.5-8h2.7l2.1,3.8c0.5,0.8,1,2.2,1,2.2s0.5-1.4,0.9-2.2l2-3.8h2.5l-4.2,7.9v3.9h-2.4V154.9z"/>
		<path class="st7" d="M355.8,146.9h3.3c3.3,0,5.3,1.7,5.3,4.6c0,2.8-2,4.5-5.3,4.5h-0.8v2.7h-2.4V146.9z M359,153.9
			c2,0,2.8-0.8,2.8-2.4c0-1.6-0.9-2.4-2.8-2.4h-0.8v4.8H359z"/>
		<path class="st7" d="M366.2,146.9h7.8v2.1h-5.4v3.7h4.7v2.1h-4.7v1.7h5.6v2.1h-8V146.9z"/>
		<path class="st7" d="M385.3,158.7h-2.8l-1.9-3c-0.2,0-0.5,0.1-0.7,0.1H379v2.9h-2.4v-11.8h3.3c3.3,0,5.3,1.6,5.3,4.5
			c0,1.8-0.8,3-2.3,3.7L385.3,158.7z M379.7,153.6c2,0,2.8-0.6,2.8-2.3c0-1.7-0.9-2.3-2.8-2.3H379v4.6H379.7z"/>
		<path class="st7" d="M387.2,146.9h7.6v2.1h-5.2v3.9h4.7v2.2h-4.7v3.6h-2.4V146.9z"/>
		<path class="st7" d="M405.5,158.7h-2.8l-1.9-3c-0.2,0-0.5,0.1-0.7,0.1h-0.8v2.9h-2.4v-11.8h3.3c3.3,0,5.3,1.6,5.3,4.5
			c0,1.8-0.8,3-2.3,3.7L405.5,158.7z M400,153.6c2,0,2.8-0.6,2.8-2.3c0-1.7-0.9-2.3-2.8-2.3h-0.8v4.6H400z"/>
		<path class="st7" d="M407.5,146.9h7.8v2.1h-5.4v3.7h4.7v2.1h-4.7v1.7h5.6v2.1h-8V146.9z M411.4,142.5h2.7l-1.8,3.3h-1.8
			L411.4,142.5z"/>
		<path class="st7" d="M429.4,158.9l-1.6,1.3l-1.8-2c-0.8,0.4-1.7,0.6-2.7,0.6c-3.4,0-6.1-2.6-6.1-6.1s2.7-6.1,6.1-6.1
			s6.1,2.6,6.1,6.1c0,1.7-0.6,3.2-1.7,4.2L429.4,158.9z M423.1,154.9l1.6-1.3l1.5,1.7c0.5-0.6,0.7-1.5,0.7-2.5
			c0-2.2-1.5-3.9-3.6-3.9s-3.6,1.7-3.6,3.9c0,2.2,1.5,3.9,3.6,3.9c0.4,0,0.8-0.1,1.2-0.2L423.1,154.9z"/>
		<path class="st7" d="M431.4,154.4v-7.5h2.4v7.4c0,1.7,0.7,2.4,2.4,2.4c1.6,0,2.3-0.7,2.3-2.4v-7.4h2.4v7.5c0,3-2.1,4.4-4.8,4.4
			C433.5,158.9,431.4,157.4,431.4,154.4z"/>
		<path class="st7" d="M443.4,146.9h7.8v2.1h-5.4v3.7h4.7v2.1h-4.7v1.7h5.6v2.1h-8V146.9z"/>
		<path class="st7" d="M457.2,153.2c-0.6-0.6-1.4-1.6-1.4-1.6s0.2,1.3,0.2,2.2v4.9h-2.3v-11.9h0.2l5.9,5.6c0.6,0.5,1.4,1.6,1.4,1.6
			s-0.2-1.3-0.2-2.1v-4.9h2.3v11.9h-0.2L457.2,153.2z"/>
		<path class="st7" d="M465.5,152.8c0-3.5,2.7-6,6.1-6c2.1,0,3.7,0.8,4.7,2.4l-1.9,1.3c-0.6-0.9-1.5-1.5-2.9-1.5
			c-2.1,0-3.6,1.6-3.6,3.9c0,2.2,1.4,3.9,3.6,3.9c1.5,0,2.4-0.7,3-1.7l1.9,1.3c-1,1.6-2.7,2.6-4.9,2.6
			C468.1,158.9,465.5,156.3,465.5,152.8z"/>
		<path class="st7" d="M478.3,146.9h7.8v2.1h-5.4v3.7h4.7v2.1h-4.7v1.7h5.6v2.1h-8V146.9z"/>
		<path class="st7" d="M487.6,156.4l2-1.1c0.5,0.8,1.2,1.5,2.4,1.5c1,0,1.6-0.5,1.6-1.2c0-0.8-0.7-1.1-1.8-1.6l-0.6-0.3
			c-1.8-0.7-2.9-1.7-2.9-3.7c0-1.8,1.4-3.2,3.6-3.2c1.5,0,2.7,0.5,3.5,1.9l-1.9,1.2c-0.4-0.7-0.9-1-1.6-1c-0.7,0-1.2,0.5-1.2,1
			c0,0.7,0.5,1,1.5,1.5l0.6,0.3c2.1,0.9,3.2,1.8,3.2,3.8c0,2.2-1.7,3.4-4,3.4C489.8,158.9,488.3,157.8,487.6,156.4z"/>
	</g>
</g>
</svg>
